<?xml version="1.0" encoding="UTF-8" standalone="no"?>
<!DOCTYPE svg PUBLIC "-//W3C//DTD SVG 1.1//EN" "http://www.w3.org/Graphics/SVG/1.1/DTD/svg11.dtd">
<svg width="100%" height="100%" viewBox="0 0 237 237" version="1.1" xmlns="http://www.w3.org/2000/svg" xmlns:xlink="http://www.w3.org/1999/xlink" xml:space="preserve" xmlns:serif="http://www.serif.com/" style="fill-rule:evenodd;clip-rule:evenodd;stroke-linecap:round;stroke-linejoin:round;stroke-miterlimit:1.5;">
    <g transform="matrix(1.588015,0,0,1.373427,-56.122332,-35.388925)">
        <path d="M61.1,56.852C66.603,65.658 101.902,118.341 101.753,118.785C101.67,119.035 55.402,153.012 49.983,156.263C70.639,153.759 115.526,141.942 129.385,138.477" style="fill:rgb(209,255,98);stroke:rgb(126,208,0);stroke-width:12.22px;"/>
    </g>
    <g transform="matrix(1.588015,0,0,1.373427,-56.122332,-35.388925)">
        <path d="M167.181,39.383C164.745,41.007 134.596,80.462 110.011,115.291C139.447,113.07 139.05,110.582 168.451,108.622" style="fill:rgb(237,255,79);stroke:rgb(255,159,41);stroke-width:12.22px;"/>
    </g>
    <g transform="matrix(1.588015,0,0,1.373427,-56.122332,-35.388925)">
        <path d="M164.004,46.688C162.315,53.024 132.304,181.808 131.609,183.895" style="fill:rgb(199,255,148);stroke:rgb(255,187,3);stroke-width:12.22px;"/>
    </g>
</svg>
